<svg id="visual" viewBox="0 0 960 540" width="960" height="540" xmlns="http://www.w3.org/2000/svg" xmlns:xlink="http://www.w3.org/1999/xlink" version="1.1"><rect x="0" y="0" width="960" height="540" fill="#080c20"></rect><path d="M0 489L32 492.7C64 496.3 128 503.7 192 499.5C256 495.3 320 479.7 384 479.3C448 479 512 494 576 500.8C640 507.7 704 506.3 768 501.2C832 496 896 487 928 482.5L960 478L960 541L928 541C896 541 832 541 768 541C704 541 640 541 576 541C512 541 448 541 384 541C320 541 256 541 192 541C128 541 64 541 32 541L0 541Z" fill="#062c46" stroke-linecap="round" stroke-linejoin="miter"></path></svg>